<svg xmlns="http://www.w3.org/2000/svg" width="680" height="680" viewBox="0 0 680 680" fill="none"><path d="M0 340C0 152.223 152.223 0 340 0H447.207V134.775C447.207 188.909 491.092 232.793 545.225 232.793H680V340C680 525.731 531.077 676.678 346.126 679.946V680H21.4414V520.721C21.4414 506.369 24.6254 492.761 30.3255 480.564C10.8484 437.723 0 390.128 0 340Z" fill="url(#paint0_linear_6_810)"></path><path d="M425.765 340.001C425.765 387.368 387.367 425.767 340 425.767C292.633 425.767 254.234 387.368 254.234 340.001C254.234 292.634 292.633 254.235 340 254.235C387.367 254.235 425.765 292.634 425.765 340.001Z" fill="#0F1418"></path><path d="M447.207 0H621.802C653.944 0 680 26.0562 680 58.1982V232.793H545.225C491.091 232.793 447.207 188.909 447.207 134.775V0Z" fill="#33373A"></path><path d="M621.802 0H447.207V134.775C447.207 161.466 457.876 185.666 475.182 203.342L662.21 16.3147C651.742 6.21339 637.497 0 621.802 0Z" fill="#0F1418"></path><path fill-rule="evenodd" clip-rule="evenodd" d="M0 340C0 152.223 152.223 0 340 0H621.802C653.943 0 680 26.0562 680 58.1982V340C680 525.731 531.077 676.678 346.126 679.946V680H21.4414V520.721C21.4414 506.369 24.6242 492.761 30.3255 480.564C10.8493 437.723 0 390.128 0 340ZM340 21.4414H447.207V134.775C447.207 188.909 491.092 232.793 545.225 232.793H658.559V340C658.559 515.935 515.935 658.559 340 658.559H42.8829V627.705C43.0029 585.515 77.2413 551.351 119.459 551.351H186.847C188.538 551.351 189.91 549.979 189.91 548.287C189.91 546.596 188.538 545.224 186.847 545.224H116.396C83.2876 545.224 54.8979 565.428 42.8829 594.179V526.847C42.8829 482.863 78.5389 447.207 122.523 447.207H346.126V447.035C402.485 443.86 447.207 397.153 447.207 340C447.207 280.791 399.209 232.793 340 232.793C280.791 232.793 232.793 280.791 232.793 340C232.793 375.07 249.631 406.206 275.664 425.766H116.396C87.5845 425.766 61.7698 438.598 44.3546 458.859C29.5747 422.132 21.4414 382.016 21.4414 340C21.4414 164.065 164.065 21.4414 340 21.4414ZM658.559 67.3874V211.351H545.225C502.935 211.351 468.649 177.067 468.649 134.775V21.4414H612.613C637.988 21.4414 658.559 42.0121 658.559 67.3874ZM340 425.766C387.367 425.766 425.766 387.367 425.766 340C425.766 292.633 387.367 254.234 340 254.234C292.633 254.234 254.234 292.633 254.234 340C254.234 387.367 292.633 425.766 340 425.766Z" fill="white"></path><defs><linearGradient id="paint0_linear_6_810" x1="340" y1="0" x2="340" y2="680" gradientUnits="userSpaceOnUse"><stop stop-color="#1DCAF0"></stop><stop offset="1" stop-color="#1D9CF0"></stop></linearGradient></defs></svg>
